<?xml version="1.0" encoding="UTF-8"?>
<svg id="Layer_1" data-name="Layer 1" xmlns="http://www.w3.org/2000/svg" viewBox="0 0 180 180">
  <defs>
    <style>
      .cls-1 {
        fill: #605270;
      }

      .cls-2 {
        fill: #00b5cc;
      }
    </style>
  </defs>
  <path class="cls-1" d="M168.49,44.92c-10.32-18.4-26.13-31.75-44.24-39.19,6.68,10.66,9.27,22.71,3.92,35.11-12.14,28.13-50.39,49.66-71.1,67.51-21.78,18.78-20.94,58.71,13.67,67.77.41.11.77.24,1.17.37,26.38,4.48,42.46-17.81,43.27-33.12.93-17.52-8.29-35.53-36.16-41.24,20.24-7.46,51.03,8.98,55.52,37.08,2,12.56-.42,22.41-5.07,30.56,1.52-.75,3.03-1.53,4.54-2.37,43.34-24.3,58.79-79.14,34.49-122.49Z"/>
  <path class="cls-2" d="M27.44,112.7c11.51-32.03,58.24-53.76,67.17-73.1,5.85-12.67,7.4-26.77-9.48-34.26-8.3-3.46-19.74-3.41-31.71,1.38-2.5,1.12-4.98,2.34-7.42,3.7C2.65,34.73-12.79,89.56,11.51,132.92c4.46,7.95,9.95,14.96,16.2,20.95-4.36-13.22-5.29-27.16-.27-41.17Z"/>
</svg>